
<svg width="29px" height="22px" viewBox="0 0 29 22" version="1.1" xmlns="http://www.w3.org/2000/svg" xmlns:xlink="http://www.w3.org/1999/xlink">
    <g id="Page-1" stroke="none" stroke-width="1" fill="none" fill-rule="evenodd">
        <g id="SleepBook-Dashboard-1440px" transform="translate(-1042.000000, -807.000000)" fill="#178FE5" fill-rule="nonzero">
            <g id="Group-45" transform="translate(130.000000, 340.000000)">
                <g id="Group-25" transform="translate(0.000000, 235.000000)">
                    <g id="Group-21" transform="translate(60.000000, 212.000000)">
                        <g id="Group-19">
                            <g transform="translate(728.000000, 16.000000)">
                                <g id="171322" transform="translate(124.000000, 4.000000)">
                                    <path d="M4.43612121,0.00474889868 C4.43534007,0.00474889868 4.43446128,0.00474889868 4.43368013,0.00474889868 C4.15940067,0.00474889868 3.90142761,0.110872247 3.70662963,0.303735683 C3.5096835,0.498731278 3.40120202,0.758370044 3.40120202,1.03477533 L3.40120202,16.4798414 C3.40120202,17.0462203 3.86725253,17.5081233 4.44022222,17.5095771 C6.85571717,17.5152952 10.902633,18.0149956 13.6944444,20.9148282 L13.6944444,4.75112775 C13.6944444,4.55913656 13.645037,4.37877533 13.5517879,4.22952423 C11.2603973,0.566863436 6.85708418,0.0103700441 4.43612121,0.00474889868 Z" id="Shape"></path>
                                    <path d="M25.598798,16.4798414 L25.598798,1.03467841 C25.598798,0.758273128 25.4903165,0.498634361 25.2933704,0.303638767 C25.0985724,0.11077533 24.840404,0.00465198238 24.5664175,0.00465198238 C24.5655387,0.00465198238 24.5646599,0.00465198238 24.5638788,0.00465198238 C22.1430135,0.0103700441 17.7397003,0.566863436 15.4482121,4.22952423 C15.354963,4.37877533 15.3056532,4.55913656 15.3056532,4.75112775 L15.3056532,20.9147313 C18.0974646,18.0148987 22.1443805,17.5151982 24.5598754,17.5094802 C25.1327475,17.5080264 25.598798,17.0461233 25.598798,16.4798414 Z" id="Shape"></path>
                                    <path d="M27.9623468,3.56661674 L27.2099091,3.56661674 L27.2099091,16.4798414 C27.2099091,17.9259295 26.022862,19.1051101 24.5636835,19.108696 C22.5148384,19.1135419 19.1365825,19.5111894 16.7440337,21.7587753 C20.8819529,20.7531718 25.2440606,21.4068722 27.7300539,21.9691806 C28.0404613,22.039348 28.3612189,21.9668546 28.6099158,21.7701145 C28.857734,21.573859 28.9999024,21.2804934 28.9999024,20.9656123 L28.9999024,4.59644934 C29,4.02861674 28.5344377,3.56661674 27.9623468,3.56661674 Z" id="Shape"></path>
                                    <path d="M1.78999327,16.4798414 L1.78999327,3.56661674 L1.03755556,3.56661674 C0.46556229,3.56661674 0,4.02861674 0,4.59644934 L0,20.9653216 C0,21.2802996 0.14216835,21.5735683 0.389986532,21.7698238 C0.638488215,21.966467 0.958952862,22.0392511 1.26984848,21.9688899 C3.75584175,21.4064846 8.11804714,20.7528811 12.255771,21.7584846 C9.86331987,19.5109956 6.48506397,19.1134449 4.43621886,19.1085991 C2.97713805,19.1051101 1.78999327,17.9259295 1.78999327,16.4798414 Z" id="Shape"></path>
                                </g>
                            </g>
                        </g>
                    </g>
                </g>
            </g>
        </g>
    </g>
</svg>