
<svg width="24px" height="24px" viewBox="0 0 24 24" version="1.1" xmlns="http://www.w3.org/2000/svg" xmlns:xlink="http://www.w3.org/1999/xlink">
    <g id="Page-1" stroke="none" stroke-width="1" fill="none" fill-rule="evenodd">
        <g id="Tablet-SleepBook-Reader-Screen" transform="translate(-716.000000, -20.000000)" fill="#FFFFFF">
            <g id="Group-6" transform="translate(688.000000, 0.000000)">
                <g id="Group-12" transform="translate(26.000000, 20.000000)">
                    <g id="Group-9" transform="translate(2.000000, 0.000000)">
                        <path d="M0.686291501,21.8994949 L21.8994949,0.686291501 C22.2900192,0.295767209 22.9231842,0.295767209 23.3137085,0.686291501 C23.7042328,1.07681579 23.7042328,1.70998077 23.3137085,2.10050506 L2.10050506,23.3137085 C1.70998077,23.7042328 1.07681579,23.7042328 0.686291501,23.3137085 C0.295767209,22.9231842 0.295767209,22.2900192 0.686291501,21.8994949 Z" id="Rectangle-19"></path>
                        <path d="M2.10050506,0.686291501 L23.3137085,21.8994949 C23.7042328,22.2900192 23.7042328,22.9231842 23.3137085,23.3137085 C22.9231842,23.7042328 22.2900192,23.7042328 21.8994949,23.3137085 L0.686291501,2.10050506 C0.295767209,1.70998077 0.295767209,1.07681579 0.686291501,0.686291501 C1.07681579,0.295767209 1.70998077,0.295767209 2.10050506,0.686291501 Z" id="Rectangle-19"></path>
                    </g>
                </g>
            </g>
        </g>
    </g>
</svg>