
<svg width="15px" height="15px" viewBox="0 0 15 15" version="1.1" xmlns="http://www.w3.org/2000/svg" xmlns:xlink="http://www.w3.org/1999/xlink">
    <g id="Page-1" stroke="none" stroke-width="1" fill="none" fill-rule="evenodd">
        <g id="SleepBook-Dashboard-1440px" transform="translate(-283.000000, -649.000000)" fill="#178FE5">
            <g id="Group-45" transform="translate(130.000000, 340.000000)">
                <g id="Group-25" transform="translate(0.000000, 235.000000)">
                    <g id="Group-4" transform="translate(153.000000, 66.000000)">
                        <g id="Group-17" transform="translate(0.000000, 8.000000)">
                            <path d="M12.2292141,1.29162553 C12.8271871,0.693652492 13.7966929,0.693652492 14.394666,1.29162553 C14.992639,1.88959856 14.992639,2.85910441 14.394666,3.45707745 L10.0085977,7.84314575 L14.394666,12.2292141 C14.992639,12.8271871 14.992639,13.7966929 14.394666,14.394666 C13.7966929,14.992639 12.8271871,14.992639 12.2292141,14.394666 L7.84314575,10.0085977 L3.45707745,14.394666 C2.85910441,14.992639 1.88959856,14.992639 1.29162553,14.394666 C0.693652492,13.7966929 0.693652492,12.8271871 1.29162553,12.2292141 L5.67769383,7.84314575 L1.29162553,3.45707745 C0.693652492,2.85910441 0.693652492,1.88959856 1.29162553,1.29162553 C1.88959856,0.693652492 2.85910441,0.693652492 3.45707745,1.29162553 L7.84314575,5.67769383 L12.2292141,1.29162553 Z" id="Combined-Shape"></path>
                        </g>
                    </g>
                </g>
            </g>
        </g>
    </g>
</svg>