
<svg width="153px" height="142px" viewBox="0 0 153 142" version="1.1" xmlns="http://www.w3.org/2000/svg" xmlns:xlink="http://www.w3.org/1999/xlink">
    <g id="Page-1" stroke="none" stroke-width="1" fill="none" fill-rule="evenodd">
        <g id="SleepBook-Intro" transform="translate(-90.000000, -282.000000)">
            <g id="planet-2" transform="translate(179.500000, 349.000000) rotate(34.000000) translate(-179.500000, -349.000000) translate(90.000000, 282.000000)">
                <circle id="Oval-5" fill="#A3E1FF" cx="89.5" cy="73.5" r="60.5"></circle>
                <g id="Group-26" transform="translate(0.000000, 63.000000)">
                    <path d="M89.5,55 C40.0705149,55 0,42.6878306 0,27.5 C0,12.3121694 40.0705149,0 89.5,0 C138.929485,0 179,12.3121694 179,27.5 C179,42.6878306 138.929485,55 89.5,55 Z M90,32 C125.898509,32 155,25.2842712 155,17 C155,8.71572875 125.898509,2 90,2 C54.1014913,2 25,8.71572875 25,17 C25,25.2842712 54.1014913,32 90,32 Z" id="Combined-Shape" fill="#DFF7FF"></path>
                    <path d="M89.3001699,46 C43.1843933,46 5.80016993,36.3741221 5.80016993,24.5 C5.80016993,12.6258779 43.1843933,3 89.3001699,3 C135.415947,3 172.80017,12.6258779 172.80017,24.5 C172.80017,36.3741221 135.415947,46 89.3001699,46 Z M90,40.0907187 C133.07821,40.0907187 168,32.2353938 168,22.5453594 C168,12.855325 133.07821,5 90,5 C46.9217895,5 12,12.855325 12,22.5453594 C12,32.2353938 46.9217895,40.0907187 90,40.0907187 Z" id="Combined-Shape" fill="#C6E9FF"></path>
                </g>
                <path d="M150,73.5 C150,40.0867726 122.913227,13 89.5,13 C56.0867726,13 29,40.0867726 29,73.5 C29,89.7910624 60.020672,89.9941557 89.5,90.3993708 C120.483241,90.8252583 150,90.622165 150,73.5 Z" id="Oval-5" fill="#A3E1FF"></path>
                <g id="Group-41" transform="translate(54.000000, 49.000000)">
                    <path d="M10.5,0.5 C10.5,-0.328427125 11.1715729,-1 12,-1 C12.8284271,-1 13.5,-0.328427125 13.5,0.5 C13.5,3.8137085 16.1862915,6.5 19.5,6.5 C22.8137085,6.5 25.5,3.8137085 25.5,0.5 C25.5,-0.328427125 26.1715729,-1 27,-1 C27.8284271,-1 28.5,-0.328427125 28.5,0.5 C28.5,5.47056275 24.4705627,9.5 19.5,9.5 C14.5294373,9.5 10.5,5.47056275 10.5,0.5 Z" id="Oval-6" fill="#4C83A6" fill-rule="nonzero"></path>
                    <path d="M41.5,0.5 C41.5,-0.328427125 42.1715729,-1 43,-1 C43.8284271,-1 44.5,-0.328427125 44.5,0.5 C44.5,3.8137085 47.1862915,6.5 50.5,6.5 C53.8137085,6.5 56.5,3.8137085 56.5,0.5 C56.5,-0.328427125 57.1715729,-1 58,-1 C58.8284271,-1 59.5,-0.328427125 59.5,0.5 C59.5,5.47056275 55.4705627,9.5 50.5,9.5 C45.5294373,9.5 41.5,5.47056275 41.5,0.5 Z" id="Oval-6-Copy" fill="#4C83A6" fill-rule="nonzero"></path>
                    <path d="M28.074007,19.881686 C27.7555225,19.1169251 28.117301,18.2387813 28.8820619,17.9202968 C29.6468227,17.6018124 30.5249666,17.9635909 30.843451,18.7283518 C31.5366384,20.3928683 33.1658588,21.5 35,21.5 C36.8335699,21.5 38.4623794,20.3935615 39.1559397,18.729814 C39.4746957,17.9651663 40.3529679,17.6036996 41.1176156,17.9224555 C41.8822633,18.2412114 42.2437301,19.1194836 41.9249741,19.8841314 C40.7694269,22.6561162 38.0550099,24.5 35,24.5 C31.9440346,24.5 29.228938,22.6549644 28.074007,19.881686 Z" id="Oval-6-Copy-2" fill="#4C83A6" fill-rule="nonzero"></path>
                    <ellipse id="Oval-7" fill="#FFFFFF" opacity="0.322433036" cx="7" cy="21" rx="7" ry="6"></ellipse>
                    <ellipse id="Oval-7-Copy" fill="#FFFFFF" opacity="0.322433036" cx="63" cy="21" rx="7" ry="6"></ellipse>
                </g>
                <g id="Group-27" transform="translate(65.000000, 0.000000)">
                    <path d="M22.5914379,15.7607543 C18.7238011,19.5626584 15.634143,22.032774 13.3224635,23.171101 C11.641582,23.9988078 9.15185398,24.7232251 5.85327934,25.3443529 L5.41710039,25.4148713 C3.46344325,25.7307252 1.62364105,24.4030234 1.30778717,22.4493662 C1.3034295,22.4224126 1.29938003,22.3954101 1.29563956,22.3683639 L0.757856172,18.4798207 C0.255011779,14.8439103 0.255011779,11.1560897 0.757856172,7.52017933 L1.13040675,4.82638276 L1.34854952,3.2490607 C1.57237306,1.63066275 3.06578865,0.500136823 4.6841866,0.723960365 C4.78487172,0.737885062 4.88477227,0.756989693 4.98349075,0.78119824 C8.62783771,1.73186126 11.4074953,2.67868116 13.3224635,3.62165794 C15.7613878,4.82264339 18.7102225,6.95916106 22.1689674,10.031211 L22.5914379,15.7607543 Z" id="Triangle-3" fill="#DFF7FF"></path>
                    <path d="M25.6,15.7607543 L26.0224705,10.031211 C29.4812155,6.95916106 32.4300501,4.82264339 34.8689744,3.62165794 C36.7839426,2.67868116 39.5636002,1.73186126 43.2079472,0.78119824 C43.3114585,0.755814345 43.4162941,0.735989492 43.5219903,0.721811383 C45.1331492,0.505690034 46.6171479,1.61680201 46.8365942,3.20354944 L47.4561656,7.68347602 C47.9440946,11.2115378 47.9440946,14.7884622 47.4561656,18.316524 L46.8957984,22.3683639 C46.8913448,22.400566 46.8864446,22.4327065 46.8810989,22.4647766 C46.5571271,24.4083825 44.6946521,25.7253346 42.7211446,25.4062715 L42.3381586,25.3443529 C39.0395839,24.7232251 36.5498559,23.9988078 34.8689744,23.171101 C32.5572949,22.032774 29.4676368,19.5626584 25.6,15.7607543 Z" id="Triangle-3-Copy" fill="#DFF7FF"></path>
                    <path d="M22,9.06060606 L26,9.06060606 C26.6627417,9.06060606 27.2,9.58972408 27.2,10.2424242 L27.2,15.7575758 C27.2,16.4102759 26.6627417,16.9393939 26,16.9393939 L22,16.9393939 C21.3372583,16.9393939 20.8,16.4102759 20.8,15.7575758 L20.8,10.2424242 C20.8,9.58972408 21.3372583,9.06060606 22,9.06060606 Z" id="Rectangle-9" fill="#C6E9FF"></path>
                </g>
            </g>
        </g>
    </g>
</svg>