<svg width="28px" height="35px" viewBox="0 0 28 35" version="1.1" xmlns="http://www.w3.org/2000/svg"
     xmlns:xlink="http://www.w3.org/1999/xlink">
    <g id="Page-1" stroke="none" stroke-width="1" fill="none" fill-rule="evenodd">
        <g id="Tablet-SleepBook-Dashboard" transform="translate(-118.000000, -1790.000000)" fill-rule="nonzero">
            <g id="Group-7" transform="translate(40.000000, 1771.000000)">
                <g id="Group-40" transform="translate(78.000000, 19.000000)">
                    <path d="M28,15.4807692 L28,28.9423077 C28,32.2884583 25.3142825,35 22,35 L6,35 C2.6857175,35 0,32.2884583 0,28.9423077 L0,15.4807692 C0,12.8406857 1.67187841,10.5956508 4.0052592,9.76575566 C4.17808511,4.34451393 8.58855349,0 14,0 C19.4114465,0 23.8219149,4.34451393 23.9947408,9.76575566 C26.3281216,10.5956508 28,12.8406857 28,15.4807692 Z"
                          id="Path" fill="#FFFFFF"></path>
                    <path d="M22,12.7884615 C23.4733333,12.7884615 24.6666667,13.9932692 24.6666667,15.4807692 L24.6666667,28.9423077 C24.6666667,30.4298077 23.4733333,31.6346154 22,31.6346154 L6,31.6346154 C4.52666667,31.6346154 3.33333333,30.4298077 3.33333333,28.9423077 L3.33333333,15.4807692 C3.33333333,13.9932692 4.52666667,12.7884615 6,12.7884615 L7.33333333,12.7884615 L7.33333333,10.0961538 C7.33333333,6.38076923 10.32,3.36538462 14,3.36538462 C17.68,3.36538462 20.6666667,6.38076923 20.6666667,10.0961538 L20.6666667,12.7884615 L22,12.7884615 Z M14,24.9038462 C15.4733333,24.9038462 16.6666667,23.6990385 16.6666667,22.2115385 C16.6666667,20.7240385 15.4733333,19.5192308 14,19.5192308 C12.5266667,19.5192308 11.3333333,20.7240385 11.3333333,22.2115385 C11.3333333,23.6990385 12.5266667,24.9038462 14,24.9038462 Z M18.1333333,12.7884615 L18.1333333,10.0961538 C18.1333333,7.79423077 16.28,5.92307692 14,5.92307692 C11.72,5.92307692 9.86666667,7.79423077 9.86666667,10.0961538 L9.86666667,12.7884615 L18.1333333,12.7884615 Z"
                          id="Shape" fill="#F4527E"></path>
                </g>
            </g>
        </g>
    </g>
</svg>