
<svg width="28px" height="24px" viewBox="0 0 28 24" version="1.1" xmlns="http://www.w3.org/2000/svg" xmlns:xlink="http://www.w3.org/1999/xlink">
    <g id="Page-1" stroke="none" stroke-width="1" fill="none" fill-rule="evenodd">
        <g id="SleepBook-Dashboard-1440px" transform="translate(-284.000000, -511.000000)" fill="#178FE5" fill-rule="nonzero">
            <g id="Group-45" transform="translate(130.000000, 340.000000)">
                <g id="Rectangle-6" transform="translate(0.000000, 100.000000)">
                    <g id="Group-12" transform="translate(154.000000, 22.000000)">
                        <g id="Group-4" transform="translate(0.000000, 44.000000)">
                            <g id="25628" transform="translate(0.000000, 5.000000)">
                                <path d="M26.8123182,7.18723221 C26.0204757,6.39560725 25.0828955,5.99976741 23.9996873,5.99976741 L18.1560106,5.99976741 C18.3852613,5.37484066 18.4998593,4.70815728 18.4998593,3.99977197 C18.4998593,2.72906752 18.0752885,1.74480379 17.2263111,1.04670715 C16.3771695,0.348884141 15.3017872,0 13.9997811,0 C13.6039966,0 13.2418692,0.0911203285 12.9137271,0.273525166 C12.585585,0.45565637 12.29909,0.71363909 12.0543516,1.04670715 C11.8096679,1.38004884 11.5986959,1.70819148 11.4217094,2.03118979 C11.2444491,2.35413336 11.0517012,2.72906752 10.8434656,3.15610171 C10.6351753,3.58340953 10.4633877,3.90618893 10.3279936,4.1250419 C9.96345811,4.6980328 9.44251337,5.36964161 8.76559715,6.14057979 C8.7446915,6.17182886 8.67174063,6.26043175 8.54674454,6.40622428 C8.42174844,6.55212626 8.3227476,6.66409754 8.24990618,6.74219286 C8.17706477,6.82028818 8.07040216,6.9323142 7.92964474,7.07816145 C7.78877787,7.22406343 7.66378178,7.34112432 7.55454702,7.42972721 C7.44514808,7.5183301 7.32803265,7.61196787 7.20298183,7.7110236 C7.07798574,7.8100246 6.95556181,7.88286614 6.83576477,7.92987657 C6.71607718,7.97666809 6.60410608,8.00009121 6.49996091,8.00009121 L2.00010164,8.00009121 C1.44790787,8.00009121 0.976490915,8.19573997 0.585905495,8.58621657 C0.195429527,8.97652899 0,9.44794671 0,10.0000319 L0,20.0000091 C0,20.5520943 0.19521062,21.0234573 0.585905495,21.4141528 C0.976709823,21.8046842 1.44785314,22.0001687 2.00010164,22.0001687 L6.49996091,22.0001687 C7.11443381,22.0001687 8.27579198,22.3076793 9.98419958,22.922208 C11.9528333,23.6409914 13.6298824,24 15.015347,24 C16.4839963,24 17.6663149,23.5806823 18.5621384,22.7422111 C19.4579072,21.9039588 19.9008115,20.7607681 19.8901945,19.3124748 C20.5155581,18.5103422 20.8279388,17.5832682 20.8279388,16.5313072 C20.8279388,16.302275 20.8121775,16.0783325 20.7811474,15.859589 C21.1249961,15.2658566 21.3176893,14.6459647 21.3594459,14.000187 L24.0001251,14.000187 C25.0938956,14.000187 26.0340479,13.6044566 26.8206367,12.8128316 C27.6068424,12.0212614 28,11.0786449 28,9.98503675 C27.9996716,8.91189649 27.6037777,7.97951389 26.8123182,7.18723221 Z M3.70309128,19.7033345 C3.5050896,19.9012818 3.27080402,20.0001733 3.00001564,20.0001733 C2.72900835,20.0001733 2.49461332,19.9012818 2.29677581,19.7033345 C2.09877412,19.5053872 1.99993746,19.2711012 1.99993746,19.0002577 C1.99993746,18.7294141 2.09882885,18.494964 2.29677581,18.2971262 C2.49483222,18.0991789 2.72900835,18.0001231 3.00001564,18.0001231 C3.27080402,18.0001231 3.5050896,18.0991789 3.70309128,18.2971262 C3.90098352,18.4949093 3.99992964,18.7293594 3.99992964,19.0002577 C3.99992964,19.2711012 3.90092879,19.5053872 3.70309128,19.7033345 Z M25.4058386,11.4071706 C25.010273,11.8030104 24.5409357,12.0008483 23.9993042,12.0008483 L18.827673,12.0008483 C18.9838634,12.1778351 19.1140038,12.4254197 19.218149,12.7430548 C19.3224583,13.0606899 19.3745583,13.3498669 19.3745583,13.6102029 C19.3745583,14.3290411 19.0984614,14.9485499 18.5463771,15.4692218 C18.7340354,15.8025635 18.827673,16.1621741 18.827673,16.5473969 C18.827673,16.9328387 18.7364434,17.3155988 18.5542577,17.6957867 C18.3718532,18.0757557 18.1244332,18.3492262 17.8118882,18.5159244 C17.8639335,18.8279226 17.8901476,19.1198907 17.8901476,19.3908985 C17.8901476,21.1299559 16.9058308,21.9997309 14.9370876,21.9997309 C14.0932545,21.9997309 13.158356,21.8330874 12.132392,21.5000741 C11.1063733,21.1668966 10.0985787,20.833336 9.10895331,20.4999943 C8.11932795,20.1668715 7.24966382,20.0001733 6.49957782,20.0001733 L5.99964818,20.0001733 L5.99964818,10.0004697 L6.49957782,10.0004697 C7.23910154,10.0004697 7.96817244,9.70352145 8.68695469,9.10957014 C8.99960909,8.84896053 9.52564343,8.29682059 10.2651124,7.45320506 C11.0151984,6.60958953 11.5985865,5.85457688 12.0151124,5.18772931 C12.1505066,4.96887634 12.3432545,4.63033559 12.5933562,4.17205233 C13.2808347,2.72408737 13.74957,2.00026907 13.9996716,2.00026907 C14.7392501,2.00026907 15.3408075,2.15908661 15.8043437,2.47666695 C16.26788,2.7944662 16.4995387,3.30211314 16.4995387,3.99999088 C16.4995387,4.44798548 16.4214435,4.8880994 16.2652532,5.32033265 C16.1088986,5.75256589 15.9371658,6.106868 15.7496716,6.38280115 C15.5621775,6.6587343 15.3902805,6.94528448 15.2340354,7.24217804 C15.077845,7.53901688 14.9998045,7.79169108 14.9998045,7.99992703 L23.999742,7.99992703 C24.5203584,7.99992703 24.9840589,8.20050121 25.3904603,8.60148538 C25.7965334,9.00274319 25.9995153,9.46852404 25.9995153,9.99992247 C25.9995153,10.5420474 25.8017325,11.0107288 25.4058386,11.4071706 Z" id="Shape"></path>
                            </g>
                        </g>
                    </g>
                </g>
            </g>
        </g>
    </g>
</svg>