
<svg width="147px" height="136px" viewBox="0 0 147 136" version="1.1" xmlns="http://www.w3.org/2000/svg" xmlns:xlink="http://www.w3.org/1999/xlink">
    <defs>
        <linearGradient x1="40.1073531%" y1="152.245086%" x2="71.4806081%" y2="-9.62138599%" id="linearGradient-1">
            <stop stop-color="#98D8FF" offset="0%"></stop>
            <stop stop-color="#4EBBFE" offset="100%"></stop>
        </linearGradient>
    </defs>
    <g id="Page-1" stroke="none" stroke-width="1" fill="none" fill-rule="evenodd">
        <g id="SleepBook-Intro" transform="translate(-1119.000000, -514.000000)">
            <g id="cometa" transform="translate(1199.500000, 584.000000) rotate(30.000000) translate(-1199.500000, -584.000000) translate(1119.000000, 544.000000)">
                <g id="Group-12">
                    <g id="Group-20">
                        <path d="M0.267116117,59.9049018 C-0.201465973,60.55455 -0.116160003,61.8441983 1.02926288,61.511334 C1.02926288,61.511334 28.5542554,52.6984696 63.5297032,56.4508315 C98.5047504,60.2027913 110.921775,67.1708315 110.921775,67.1708315 L116.74892,56.4508315 C107.769766,52.9955551 91.0174995,46.7879106 70.0182134,43.8150463 C44.97991,40.2709257 15.6342057,49.4482184 5.31899174,52.8970626 L0.267116117,59.9049018 Z" id="Fill-1" fill="#ECF7FF"></path>
                        <path d="M126.245397,37.619154 L131.923251,26.6225711 C131.923251,26.6225711 120.175457,10.2740284 73.5839794,3.03784745 C26.9188102,-4.20958974 4.7893202,3.78639016 4.7893202,3.78639016 C4.27708388,3.90458111 3.83092965,4.25955599 4.07242965,4.75443036 L11.8172505,20.6470937 C20.8152282,17.9829731 44.4650068,12.5670937 73.7177456,18.3142294 C102.249989,23.9198575 119.581119,33.4000585 126.245397,37.619154 Z" id="Fill-3" fill="#ECF7FF"></path>
                        <path d="M74.509228,17.6578305 C45.2564892,11.9106948 20.6124055,18.0333368 11.6144279,20.6974574 L17.6090746,32.9977589 C17.9651169,33.7278092 17.9979577,34.560774 17.7252189,35.3020805 C30.3925547,32.1861006 52.7407164,27.9384624 70.9781716,31.0950453 C90.6077562,34.4920303 111.003893,43.3012765 120.760012,47.9010755 L127.458597,36.4824222 C120.794319,32.2633268 103.761967,23.4049662 74.509228,17.6578305 Z" id="Fill-5" fill="#D8F0FF"></path>
                        <path d="M17.2662488,36.0761739 L5.20646766,52.8054201 C15.5216816,49.3565759 43.9858408,41.0225055 69.0241443,44.5666261 C90.0234303,47.5394905 107.16152,53.2974804 116.140674,56.7527568 L120.846313,46.717199 C111.090194,42.1174 92.3923293,34.2049503 72.7631453,30.8079653 C54.52569,27.6517844 30.3072488,32.2578824 17.6399129,35.3734603 C17.549,35.6202945 17.4244453,35.8570784 17.2662488,36.0761739 Z" id="Fill-7" fill="#C6E9FF"></path>
                    </g>
                    <path d="M137.309931,20.8119397 L143.953785,37.4824925 C144.357887,39.0527437 145.505712,40.3226935 147.023598,40.8790754 L159.515115,45.383196 C161.087869,45.9592764 161.319357,48.0951558 159.907202,48.9972663 L148.956399,58.703397 C147.593506,59.5745528 146.744852,61.063196 146.68678,62.6836985 L143.488807,77.7884221 C143.428332,79.4676181 141.476307,80.3488241 140.185103,79.2794774 L130.395342,70.0368643 C129.148994,69.0049045 127.476516,68.6547538 125.922986,69.1001809 L107.832113,72.502392 C106.222914,72.9638995 104.784727,71.3727437 105.39869,69.8093266 L113.922078,55.8201809 C114.514414,54.3114372 114.329384,52.6065126 113.427464,51.2609849 L101.822648,36.8296281 C100.888287,35.4358593 101.951207,33.5713367 103.622083,33.6746533 L122.301287,35.7003819 C123.914091,35.7996784 125.472026,35.0965628 126.468063,33.8193769 L133.764327,20.0690251 C134.796409,18.7460101 136.891411,19.185005 137.309931,20.8119397" id="Fill-9" fill="url(#linearGradient-1)"></path>
                </g>
            </g>
        </g>
    </g>
</svg>