
<svg width="259px" height="260px" viewBox="0 0 259 260" version="1.1" xmlns="http://www.w3.org/2000/svg" xmlns:xlink="http://www.w3.org/1999/xlink">
    <defs>
        <path d="M155.464553,48.8268857 C146.182473,48.0544283 136.58809,49.2221183 127.260631,52.5985862 C92.8033859,65.071842 75.0370926,102.964729 87.5785041,137.234718 C100.119916,171.504706 138.219855,189.17445 172.677099,176.701194 C184.00891,172.599166 193.535548,165.747936 200.772697,157.180481 C209.282828,147.106049 213.490749,153.957602 206.401845,168.277854 C196.002948,189.284598 177.754035,206.485561 153.884287,215.126225 C104.782713,232.900615 50.4903001,207.721231 32.6187887,158.886497 C14.7472773,110.051763 40.0642452,56.0543991 89.1658192,38.2800095 C109.569548,30.8940177 130.869602,30.9250481 150.080199,36.9883734 C165.504255,41.8565755 168.350164,49.89923 155.464553,48.8268857 Z" id="path-1"></path>
        <filter x="-35.8%" y="-24.2%" width="171.5%" height="169.6%" filterUnits="objectBoundingBox" id="filter-2">
            <feOffset dx="0" dy="20" in="SourceAlpha" result="shadowOffsetOuter1"></feOffset>
            <feGaussianBlur stdDeviation="10" in="shadowOffsetOuter1" result="shadowBlurOuter1"></feGaussianBlur>
            <feColorMatrix values="0 0 0 0 0.364585861   0 0 0 0 0.666301918   0 0 0 0 0.766873937  0 0 0 0.302564538 0" type="matrix" in="shadowBlurOuter1"></feColorMatrix>
        </filter>
        <linearGradient x1="50%" y1="3.64216211%" x2="50%" y2="97.3674054%" id="linearGradient-3">
            <stop stop-color="#DDF7FF" offset="0%"></stop>
            <stop stop-color="#F1FCFF" offset="100%"></stop>
        </linearGradient>
        <path d="M153.285546,32.4630952 C144.828884,28.5798169 135.411557,26.4134473 125.485483,26.4134473 C88.8168488,26.4134473 59.0910475,55.9777052 59.0910475,92.4470655 C59.0910475,128.916426 88.8168488,158.480684 125.485483,158.480684 C137.544543,158.480684 148.852717,155.283229 158.599667,149.694253 C170.06106,143.122202 171.65904,150.991929 160.073071,162.037192 C143.077317,178.239771 120.013726,188.195812 94.6120705,188.195812 C42.3592668,188.195812 0,146.066744 0,94.097906 C0,42.1290675 42.3592668,0 94.6120705,0 C116.325265,0 136.330098,7.27461638 152.297043,19.5069829 C165.116793,29.3282657 165.025293,37.8539576 153.285546,32.4630952 Z" id="path-4"></path>
        <path d="M175.161848,49.5704527 C177.529439,46.0794311 192.303909,50.2754799 193.445872,51.9499234 C194.587836,53.624367 191.014922,52.9582623 190.366881,53.9138006 C189.718841,54.8693389 191.573185,56.0745861 190.809937,57.1999978 C190.046689,58.3254094 187.697063,57.1371162 186.986518,58.1848175 C186.275973,59.2325188 188.173856,60.5056997 187.472999,61.539116 C186.772142,62.5725324 185.206766,61.5224112 184.562109,62.4729614 C183.917451,63.4235116 185.107543,66.2977244 184.467056,65.9713912 C180.689133,64.0465119 172.794258,53.0614743 175.161848,49.5704527 Z" id="path-6"></path>
        <filter x="-118.8%" y="-126.6%" width="337.5%" height="352.2%" filterUnits="objectBoundingBox" id="filter-7">
            <feOffset dx="0" dy="0" in="SourceAlpha" result="shadowOffsetOuter1"></feOffset>
            <feGaussianBlur stdDeviation="7.5" in="shadowOffsetOuter1" result="shadowBlurOuter1"></feGaussianBlur>
            <feColorMatrix values="0 0 0 0 1   0 0 0 0 1   0 0 0 0 1  0 0 0 0.5 0" type="matrix" in="shadowBlurOuter1"></feColorMatrix>
        </filter>
        <linearGradient x1="19.1237486%" y1="86.3390795%" x2="97.0998135%" y2="60.8467886%" id="linearGradient-8">
            <stop stop-color="#98D8FF" offset="0%"></stop>
            <stop stop-color="#4EBBFE" offset="100%"></stop>
        </linearGradient>
        <path d="M130.700897,43.1797712 C121.087007,38.765097 110.380993,36.3022767 99.0966141,36.3022767 C87.6360905,36.3022767 76.2997184,38.3587346 66.8779707,43.5992543 C62.2312969,46.1838051 50.3627885,56.3390015 45.3346179,64.1693068 C28.4498616,68.5056415 6.13263336,51.1658525 3.13984601,33.7337044 C14.8332598,21.3594555 41.9193359,8.57983921 63.8974008,8.57983921 C88.5818745,8.57983921 111.425229,14.5444479 129.577124,28.4507172 C144.151156,39.615965 144.047135,49.3083305 130.700897,43.1797712 Z" id="path-9"></path>
    </defs>
    <g id="Page-1" stroke="none" stroke-width="1" fill="none" fill-rule="evenodd">
        <g id="SleepBook-Intro" transform="translate(-1059.000000, -26.000000)">
            <g id="moon" transform="translate(1065.000000, -10.000000)">
                <g id="Group-38" transform="translate(135.900026, 145.679362) scale(-1, 1) rotate(-12.000000) translate(-135.900026, -145.679362) translate(23.900026, 21.179362)">
                    <g id="Mask" fill="black" fill-opacity="1">
                        <use filter="url(#filter-2)" xlink:href="#path-1"></use>
                    </g>
                    <g id="Group-37" transform="translate(112.161008, 130.520394) rotate(-20.000000) translate(-112.161008, -130.520394) translate(27.661008, 36.020394)">
                        <mask id="mask-5" fill="white">
                            <use xlink:href="#path-4"></use>
                        </mask>
                        <use id="Mask" fill="url(#linearGradient-3)" xlink:href="#path-4"></use>
                        <g mask="url(#mask-5)">
                            <g transform="translate(21.246219, 73.297316)">
                                <path d="M27.9112327,34.5455243 C28.4283176,33.8959909 29.378092,33.8005665 30.0312491,34.3297123 C33.2395667,36.9288842 37.7762444,37.0482398 41.0300169,34.5980303 C41.692103,34.0994553 42.6386057,34.24172 43.1445602,34.9126831 C43.6505147,35.5836463 43.5264708,36.5320716 42.8643846,37.0306466 C38.5111847,40.3087651 32.4478878,40.1486935 28.1592983,36.674355 C27.5074091,36.1462365 27.3951914,35.1937468 27.9112327,34.5455243 Z" id="Oval-2-Copy" fill="#4C83A6" fill-rule="nonzero"></path>
                                <ellipse id="Oval-3" fill="#FFFFFF" fill-rule="evenodd" transform="translate(11.295677, 27.073783) rotate(-27.000000) translate(-11.295677, -27.073783) " cx="11.2956774" cy="27.0737835" rx="8.56372724" ry="6.62696785"></ellipse>
                                <path d="M11.864064,8.26036166 L9.83438892,9.8866357 C9.186011,10.4061475 8.22754553,10.3223691 7.6852225,9.69663797 C7.13393143,9.06055955 7.22384094,8.10963348 7.88279053,7.58165113 L10.0424148,5.85125549 C9.6707718,5.16491563 9.38154763,4.43699746 9.18164338,3.67908207 C8.96921128,2.87366865 9.47301997,2.06008591 10.2949921,1.85965934 C11.1107154,1.66075646 11.9441169,2.13786272 12.1548206,2.93672315 C12.3529351,3.68785274 12.6762858,4.39674006 13.1107537,5.04071321 C13.1625659,5.08619279 13.2113647,5.13526749 13.2568295,5.18772467 C13.3527409,5.29838696 13.4308617,5.42070417 13.4896628,5.55128334 C14.8831809,7.26360141 17.0255169,8.28498346 19.3262717,8.28498346 C22.6651873,8.28498346 25.5833958,6.13921968 26.4604956,3.07217564 C26.687631,2.27792813 27.5303198,1.81716643 28.3416829,2.03167329 C29.159721,2.24794487 29.6468094,3.0715054 29.4176761,3.8727393 C29.1409013,4.84056573 28.7180395,5.75579116 28.1651431,6.59378378 L29.8242119,8.18897538 C30.4320113,8.77337341 30.4320113,9.7284831 29.8242119,10.3128811 C29.2263934,10.8876825 28.2642145,10.8876825 27.666396,10.3128811 L26.1388846,8.84418175 C25.2432525,9.58329485 24.2237205,10.1727739 23.1238122,10.5854519 L23.7498188,12.3911644 C24.0231413,13.1795615 23.5818381,14.0281859 22.7759119,14.2864848 C21.9777147,14.5423065 21.1118332,14.1260347 20.8412988,13.3456798 L20.1122999,11.2428864 C19.851482,11.261659 19.5893387,11.2710912 19.3262717,11.2710912 C18.4277001,11.2710912 17.5414642,11.1610549 16.684385,10.9459465 L15.6028469,13.0257404 C15.221728,13.7586307 14.3061423,14.0520753 13.5533085,13.6901512 C12.7906656,13.3235113 12.4775849,12.4204317 12.8639078,11.6775342 L13.8497689,9.78172705 C13.1266671,9.35387576 12.4596087,8.84278443 11.864064,8.26036166 Z" id="Combined-Shape" fill="#4C83A6" fill-rule="nonzero" transform="translate(18.801920, 8.088180) rotate(9.000000) translate(-18.801920, -8.088180) "></path>
                            </g>
                        </g>
                    </g>
                    <g id="Triangle-2">
                        <use fill="black" fill-opacity="1" filter="url(#filter-7)" xlink:href="#path-6"></use>
                        <use fill="#FFFFFF" fill-rule="evenodd" xlink:href="#path-6"></use>
                    </g>
                    <g id="Star-2-+-Star-2-Copy-+-Star-2-Copy-2-+-Star-2-Copy-3-+-Star-2-Copy-4-Mask" transform="translate(109.600496, 59.476784) rotate(-20.000000) translate(-109.600496, -59.476784) translate(37.600496, 22.702059)">
                        <mask id="mask-10" fill="white">
                            <use xlink:href="#path-9"></use>
                        </mask>
                        <use id="Mask" fill="url(#linearGradient-8)" transform="translate(71.876225, 36.711579) rotate(7.000000) translate(-71.876225, -36.711579) " xlink:href="#path-9"></use>
                        <polygon id="Star-2" fill-opacity="0.772192029" fill="#FFFFFF" opacity="0.334151786" mask="url(#mask-10)" points="26.6590964 31.2476598 21.3955968 38.7657811 20.6330131 29.6486812 11.8419782 27.0098925 20.3162806 23.4427181 20.1466218 14.2937357 26.1466124 21.2062005 34.8327924 18.1906071 30.0666882 26.0299198 35.6047014 33.315163"></polygon>
                        <polygon id="Star-2-Copy" fill-opacity="0.772192029" fill="#FFFFFF" opacity="0.334151786" mask="url(#mask-10)" transform="translate(63.516542, 27.907921) rotate(16.000000) translate(-63.516542, -27.907921) " points="63.5165418 32.1178505 58.5976388 35.4361987 60.2507954 29.7580411 55.5575895 26.1307355 61.4981995 25.9397894 63.5165418 20.379643 65.5348841 25.9397894 71.4754942 26.1307355 66.7822883 29.7580411 68.4354449 35.4361987"></polygon>
                        <polygon id="Star-2-Copy-2" fill-opacity="0.772192029" fill="#FFFFFF" opacity="0.334151786" mask="url(#mask-10)" transform="translate(79.072957, 9.669870) rotate(-12.000000) translate(-79.072957, -9.669870) " points="79.0729569 13.8797993 74.1540538 17.1981476 75.8072104 11.5199899 71.1140045 7.89268434 77.0546146 7.70173821 79.0729569 2.14159178 81.0912992 7.70173821 87.0319092 7.89268434 82.3387033 11.5199899 83.9918599 17.1981476"></polygon>
                        <polygon id="Star-2-Copy-3" fill-opacity="0.772192029" fill="#FFFFFF" opacity="0.334151786" mask="url(#mask-10)" transform="translate(110.229842, 37.509500) rotate(32.000000) translate(-110.229842, -37.509500) " points="110.229842 42.4507442 104.456468 46.3455288 106.396797 39.681008 100.888326 35.4235965 107.86089 35.1994808 110.229842 28.6734712 112.598795 35.1994808 119.571359 35.4235965 114.062888 39.681008 116.003217 46.3455288"></polygon>
                        <polygon id="Star-2-Copy-4" fill-opacity="0.772192029" fill="#FFFFFF" opacity="0.334151786" mask="url(#mask-10)" points="43.9150637 52.9302006 41.8343511 56.0154553 41.4606174 52.3245508 37.877828 51.3168896 41.2882582 49.8107399 41.1546851 46.1027163 43.6361806 48.8627692 47.1364174 47.5787458 45.2596357 50.7907019 47.556474 53.7051554"></polygon>
                    </g>
                    <path d="M42.0888903,71.4789068 C43.3788111,71.7273236 44.8869894,73.9036984 45.4769088,74.7040116 C48.6309586,78.9829473 54.903685,84.35698 62.8311294,88.3069226 C69.5721592,91.6657201 76.345626,93.1165544 83.1515297,92.6594255 C85.4678926,92.5038435 88.6885984,91.3379729 90.0321842,92.3957935 C91.3757701,93.4536141 91.6765697,95.7580966 90.5292832,96.9790665 C89.3819967,98.2000363 85.9044071,99.2769283 83.7585212,99.4300299 C73.454742,100.165169 64.7753881,98.4460673 57.7204595,94.2727239 C50.8473352,90.2069269 47.179581,88.0273343 42.930708,83.5788137 C41.9100337,82.5101796 38.9493052,78.8154555 37.8710488,75.8690698 C36.7927924,72.9226841 40.7989695,71.2304899 42.0888903,71.4789068 Z" id="Path-3" fill="#FFFFFF"></path>
                </g>
            </g>
        </g>
    </g>
</svg>